Coordinates
version=1
nRows=19
nColumns=36
inDegrees=yes

Units are S.I. units (second, meters, Newtons, ...)
If the header above contains a line with 'inDegrees', this indicates whether rotational values are in degrees (yes) or radians (no).

endheader
time	pelvis_tilt	pelvis_list	pelvis_rotation	pelvis_tx	pelvis_ty	pelvis_tz	hip_flexion_r	hip_adduction_r	hip_rotation_r	knee_angle_r	knee_angle_r_beta	ankle_angle_r	subtalar_angle_r	mtp_angle_r	hip_flexion_l	hip_adduction_l	hip_rotation_l	knee_angle_l	knee_angle_l_beta	ankle_angle_l	subtalar_angle_l	mtp_angle_l	lumbar_extension	lumbar_bending	lumbar_rotation	arm_flex_r	arm_add_r	arm_rot_r	elbow_flex_r	pro_sup_r	arm_flex_l	arm_add_l	arm_rot_l	elbow_flex_l	pro_sup_l
      1.85000000	    -20.40274559	      2.22294941	    -23.11534829	      1.11515018	      0.78411979	      0.14895659	     61.58951971	      7.75804427	    -12.46683247	     74.99180400	      1.30885389	     40.64705540	      1.69803374	     -7.49999987	     75.34132044	     -6.91229599	     12.71074884	     26.03543897	      0.45440413	      7.66220565	     16.49496439	     -7.49999987	    -12.61128547	     18.59119315	      1.89900926	     61.34778334	     -7.54316727	     66.85340175	     93.12394929	     95.02262422	     52.54887929	      1.72901186	     54.63215324	    111.92298081	    106.20598997
      1.86666670	    -19.77481764	      2.06765086	    -23.23041941	      1.11660514	      0.78897480	      0.14942571	     60.26689135	      7.92134033	    -12.08641900	     74.10809392	      1.29343024	     40.15341336	      0.98560224	     -7.49999987	     74.26131723	     -6.75094242	     12.82601856	     26.32603036	      0.45947591	      8.06079413	     16.62050917	     -7.49999987	    -13.11935374	     18.18181684	      3.49580788	     61.08984294	     -9.23877121	     65.63204359	     94.52338878	     95.85721654	     52.56307794	      3.68445221	     56.20110170	    110.64249753	    108.22880493
      1.88333330	    -18.87967256	      1.95087811	    -23.41092841	      1.11115868	      0.79562158	      0.14808327	     58.98334612	      8.05163981	    -11.61021780	     73.16299737	      1.27693519	     39.06025537	     -0.00444057	     -7.49999987	     73.02587918	     -6.63234505	     12.56061436	     26.75049919	      0.46688429	      8.13404432	     16.92353680	     -7.49999987	    -14.00720071	     17.79290754	      3.93379567	     61.71804905	     -9.70468620	     65.76286120	     95.30767476	     96.26246181	     53.90324064	      3.86946094	     56.56742210	    111.19705001	    108.60280965
      1.90000000	    -17.12438280	      1.61475788	    -23.50715586	      1.11229806	      0.80209514	      0.14864442	     56.56804178	      7.98259416	    -11.06598891	     72.12270729	      1.25877871	     38.15730624	     -0.85822866	     -7.49999987	     70.74407558	     -6.36001512	     12.38718702	     26.85417506	      0.46869377	      7.99825853	     16.79464201	     -7.49999987	    -15.58153044	     17.05943238	      3.96227809	     61.96248799	     -9.94784650	     65.83660114	     96.00142164	     95.83655665	     54.32621475	      4.55195045	     55.97166949	    111.37656767	    108.50836079
      1.91666670	    -14.70105458	      1.12893174	    -23.57199994	      1.11916443	      0.81901769	      0.15094605	     52.56766200	      7.89864992	    -10.33984340	     69.94131452	      1.22070622	     36.79720263	     -2.17348739	     -7.49999987	     66.66404980	     -6.03705017	     12.49463786	     25.33400313	      0.44216177	      7.50985925	     15.94550480	     -7.49999987	    -16.64084600	     16.12644307	      0.75506177	     60.75951012	     -7.82236697	     66.52899260	     94.01363026	     95.10983142	     53.57877119	      2.96551671	     54.57190906	    111.09912117	    107.30084171
      1.93333330	    -12.38184535	      0.51251099	    -23.56707095	      1.11921408	      0.83146257	      0.14999373	     48.64714102	      7.82802422	     -9.63243645	     67.45242665	      1.17726693	     35.16777132	     -3.68875841	     -7.49999987	     62.58189546	     -5.61426108	     12.52092273	     23.64860641	      0.41274605	      6.71353624	     15.32570362	     -7.49999987	    -20.05240879	     15.63595765	      1.59279357	     61.13103511	     -8.77908993	     67.30099843	     93.13076045	     96.64562021	     53.90553068	      3.93680580	     56.31746827	    109.11083865	    108.83432995
      1.95000000	    -11.04140729	      0.25418313	    -23.62879851	      1.11891307	      0.83463171	      0.14996822	     46.19428532	      7.84400262	     -8.98597508	     65.63550626	      1.14555569	     34.08009160	     -4.59079012	     -7.49999987	     60.00571277	     -4.97516283	     12.45113109	     22.73258170	      0.39675840	      6.19573512	     15.87678146	     -7.49999987	    -21.67347060	     15.05847390	      2.42405577	     61.25148413	     -9.58973820	     67.10734366	     93.56438602	     97.33015451	     54.52455483	      4.89254739	     57.18374048	    108.85767066	    109.43893475
      1.96666670	     -9.73180223	     -0.19065742	    -23.44307445	      1.11954641	      0.84340953	      0.14956372	     43.50736943	      7.79783006	     -8.58859406	     63.67793128	      1.11138956	     33.31279144	     -4.96271445	     -7.49999987	     57.87678645	     -4.55229745	     12.44058075	     22.04558955	      0.38476812	      6.31508228	     15.92274760	     -7.49999987	    -22.72914304	     14.63477622	      3.20562050	     61.17037527	    -10.89370932	     66.57653250	     94.88201643	     97.47235881	     55.24029142	      6.20040298	     57.27429834	    109.05767693	    109.82346402
      1.98333330	     -8.75165083	     -0.55322592	    -23.53856762	      1.11863677	      0.84890474	      0.14899808	     41.69558501	      7.90813873	     -8.32231805	     62.29152608	      1.08719223	     32.33468410	     -5.44382999	     -7.49999987	     56.33370984	     -4.18331020	     12.66999337	     21.95718981	      0.38322526	      6.53209662	     16.16313522	     -7.49999987	    -22.89805017	     14.02741605	      3.14621266	     61.22023149	    -11.49536999	     66.26762301	     95.61746796	     97.17910384	     55.71916079	      7.53999579	     56.60978631	    108.28602923	    109.64329542
      2.00000000	     -8.61697278	     -0.37665546	    -23.35541904	      1.11968831	      0.85516088	      0.14964336	     40.93907350	      7.73744323	     -8.00620077	     61.12391360	      1.06681354	     31.46120212	     -5.62953324	     -7.49999987	     56.23109616	     -3.50177529	     12.85722926	     22.54395047	      0.39346616	      6.53357988	     16.14398693	     -7.49999987	    -22.57420243	     13.25329214	      2.80247386	     60.91280880	    -12.03889878	     66.57200463	     95.64787373	     97.23945191	     54.99720365	      7.76184868	     56.98868159	    108.31380941	    109.67104502
      2.01666670	     -7.54185740	     -0.68059647	    -23.16457464	      1.12641738	      0.86699542	      0.15137651	     38.30304832	      7.86765201	     -7.20941992	     58.66904546	      1.02396801	     29.22173467	     -7.58296486	     -7.49999987	     54.03901132	     -2.77887772	     13.64351232	     21.70082569	      0.37875086	      6.02906694	     15.65247292	     -7.49999987	    -23.50709276	     12.71668414	      3.49755506	     59.94972389	    -13.50435031	     66.88899788	     95.84062533	     97.46329823	     52.46763365	      9.05604418	     56.86550479	    106.64576306	    109.81423414
      2.03333330	     -5.42602469	     -1.36295705	    -22.91244264	      1.12133868	      0.88431303	      0.14902283	     34.21517838	      7.65157101	     -6.85658424	     55.42794663	      0.96740017	     27.13129497	     -8.34259396	     -7.49999987	     50.55873673	     -2.28257104	     14.25008313	     20.09017542	      0.35063971	      5.26400564	     15.20115377	     -7.49999987	    -26.30400260	     11.98235433	      4.27073168	     59.46067339	    -15.36928210	     66.12134545	     95.79820016	     97.83519332	     51.83208904	     10.01661340	     56.12152181	    105.34814749	    109.88879429
      2.05000000	     -3.51645789	     -2.07374967	    -22.44241020	      1.12976714	      0.89403337	      0.15600481	     29.95148736	      7.63664446	     -6.59913369	     52.27470514	      0.91236572	     25.72156114	     -8.85625780	     -7.49999987	     47.09111282	     -1.86508138	     15.28557320	     18.76564790	      0.32752234	      5.13195421	     14.43697699	     -7.49999987	    -27.57051099	     11.10026769	      3.85079669	     57.91179460	    -15.72356370	     65.10703915	     95.59630950	     97.94286298	     50.35058253	     10.60718959	     54.88757678	    105.17289590	    109.75154891
      2.06666670	     -1.17538659	     -2.88880466	    -22.16967634	      1.14103779	      0.90575106	      0.15397944	     24.33594000	      7.59365281	     -6.19714820	     47.89929116	      0.83600034	     24.73319539	     -8.94901456	     -7.49999987	     42.48291270	     -1.48469198	     16.55973182	     16.37238507	      0.28575203	      4.79510065	     13.34555109	     -7.49999987	    -29.03755673	     10.46158416	      2.99588988	     55.78439376	    -16.44196608	     64.14505088	     95.36839071	     97.88450834	     48.36214767	     10.58915780	     53.25843169	    104.47669808	    109.65636763
      2.08333330	      0.84074562	     -3.51000430	    -21.87383947	      1.14058889	      0.91510122	      0.15354560	     19.46291042	      7.40944988	     -5.98434987	     43.50737582	      0.75934696	     23.05333918	     -9.17571537	     -7.49999987	     38.44893575	     -1.00635915	     17.77008889	     14.48863412	      0.25287437	      4.46511242	     12.36201312	     -7.49999987	    -30.08420046	      9.69023299	      1.67602521	     53.74598919	    -17.06976844	     63.17022261	     95.27338291	     97.80358920	     47.30759271	     10.30650173	     51.92844991	    103.16063794	    109.50247809
      2.10000000	      2.34984696	     -3.79135435	    -21.80859227	      1.14185493	      0.92125151	      0.15868132	     15.97898164	      7.29046214	     -5.70894615	     40.47449746	      0.70641324	     22.29028424	     -8.60972270	     -7.49999987	     35.68584643	     -0.51724786	     18.80210071	     13.82457157	      0.24128429	      4.82078693	     11.57862731	     -7.49999987	    -30.05228007	      8.25955209	     -0.17100715	     51.67791300	    -16.68596626	     61.70614703	     94.32633076	     97.59664152	     46.88172446	      8.91987668	     50.76546441	    102.93577105	    109.13942204
      2.11666670	      3.48750323	     -3.98393051	    -21.86371900	      1.14052947	      0.92611114	      0.15901611	     13.61006267	      7.26542555	     -5.58726551	     38.38979555	      0.67002833	     21.35078541	     -8.26023002	     -7.49999987	     34.33082502	     -0.25047035	     19.48741483	     14.46282104	      0.25242385	      5.40226810	     10.75238246	     -7.49999987	    -29.83005441	      7.02921280	     -1.62476389	     50.70939985	    -16.02903579	     60.74440826	     93.31463286	     97.57628452	     46.76460499	      8.03792951	     49.88992391	    103.62215332	    108.86020714
      2.13333330	      5.03594624	     -4.12307250	    -22.03889349	      1.14578089	      0.93257483	      0.16088992	     10.70894635	      6.95925166	     -5.49852485	     36.07641965	      0.62965231	     20.11077518	     -8.18880771	     -7.49999987	     32.00713254	      0.09221869	     20.20877955	     14.63375586	      0.25540722	      5.63862350	      9.01038850	     -7.49999987	    -30.22616805	      5.55849932	     -2.71393348	     49.36967518	    -15.98459391	     59.81822007	     92.76525957	     96.63281408	     45.55626450	      7.41412862	     50.67569033	    103.73910658	    108.65549833
      2.15000000	      7.04002173	     -4.55517485	    -22.52348719	      1.15148963	      0.94853175	      0.16367300	      6.44338676	      6.74658177	     -4.96210505	     32.48980044	      0.56705399	     18.28521905	     -8.28456571	     -7.49999987	     27.93350361	      0.25204682	     20.63830931	     13.16423505	      0.22975925	      4.67218878	      7.75957730	     -7.49999987	    -31.34425649	      4.43177078	     -2.89362275	     47.79952361	    -16.01608121	     59.07714919	     91.03299069	     96.79946648	     44.14948837	      6.49585468	     51.65001670	    103.48694247	    109.37385920
